Coordinates
version=1
nRows=25
nColumns=23
inDegrees=yes

Units are S.I. units (second, meters, Newtons, ...)
If the header above contains a line with 'inDegrees', this indicates whether rotational values are in degrees (yes) or radians (no).

endheader
time	pelvis_tilt	pelvis_list	pelvis_rotation	pelvis_tx	pelvis_ty	pelvis_tz	hip_flexion_r	hip_adduction_r	hip_rotation_r	knee_angle_r	knee_angle_r_beta	ankle_angle_r	subtalar_angle_r	mtp_angle_r	hip_flexion_l	hip_adduction_l	hip_rotation_l	knee_angle_l	knee_angle_l_beta	ankle_angle_l	subtalar_angle_l	mtp_angle_l
     22.50000000	     -1.24653725	      0.30531380	     -6.37372669	      1.96743796	      0.97141097	      1.02546643	    -19.43870730	      0.08302185	     -6.52829213	     20.38241338	      0.35574022	      1.53660241	      5.18672740	      0.00000000	     42.60676548	     -5.19009676	     -5.37747900	     89.42551054	      1.56076959	      1.68964012	    -17.61992420	      0.00000000
     22.50666667	     -1.87634776	      1.34607153	     -5.75573435	      1.97031055	      0.97433643	      1.02496095	    -20.97821313	     -0.90822492	     -8.32160402	     18.53917744	      0.32356969	     -2.96999623	      5.31885898	      0.00000000	     43.73604679	     -3.81952925	     -5.60733123	     85.55819594	      1.49327222	      1.65979500	    -17.43876116	      0.00000000
     22.51333333	     -2.70568610	      2.24513112	     -5.06098501	      1.97294081	      0.97689307	      1.02428680	    -22.01001227	     -1.72654462	    -10.39742165	     17.25928315	      0.30123132	     -7.30588515	      5.36731100	      0.00000000	     44.95005103	     -2.53516355	     -5.71117892	     81.51689342	      1.42273819	      1.56114874	    -17.14807166	      0.00000000
     22.52000000	     -3.58691602	      2.96036726	     -4.35215126	      1.97531533	      0.97931495	      1.02348448	    -22.71980623	     -2.36803225	    -12.53432307	     16.48494602	      0.28771659	    -11.33976844	      5.24983053	      0.00000000	     46.04504751	     -1.40630603	     -5.72805018	     77.27638279	      1.34872731	      1.34699358	    -16.85661414	      0.00000000
     22.52666667	     -4.46841955	      3.45300250	     -3.63584472	      1.97742162	      0.98158367	      1.02261502	    -23.14227805	     -2.82847540	    -14.68539054	     16.29136338	      0.28433793	    -14.98721029	      4.91992119	      0.00000000	     46.94792928	     -0.45471285	     -5.62957505	     72.81510010	      1.27086324	      0.77265373	    -16.98060750	      0.00000000
     22.53333333	     -5.40140027	      3.75614015	     -2.85886451	      1.97927330	      0.98355343	      1.02157588	    -23.22826101	     -3.14874687	    -16.83751592	     16.71503312	      0.29173236	    -17.96841855	      4.37025423	      0.00000000	     47.77599587	      0.32434120	     -5.52062356	     68.25934664	      1.19135034	      0.73844517	    -16.29389360	      0.00000000
     22.54000000	     -6.24175686	      3.91248405	     -2.07087751	      1.98084248	      0.98541085	      1.02042707	    -23.15685556	     -3.41008545	    -18.93784567	     17.70667499	      0.30903978	    -20.25404602	      3.86339638	      0.00000000	     48.30167627	      1.00066567	     -5.38926066	     63.47213067	      1.10779766	      0.45397130	    -16.03188546	      0.00000000
     22.54666667	     -6.99743124	      3.94838992	     -1.27874544	      1.98220627	      0.98700931	      1.01907141	    -22.96646786	     -3.55741045	    -20.48272508	     19.16776747	      0.33454065	    -21.83405011	      2.76652078	      0.00000000	     48.58539470	      1.55954650	     -5.36978929	     58.59226262	      1.02262790	      0.59230208	    -15.08667940	      0.00000000
     22.55333333	     -7.61317695	      3.92066018	     -0.49356026	      1.98334637	      0.98837774	      1.01758727	    -22.72139424	     -3.67870596	    -21.65468334	     21.07037796	      0.36774747	    -22.69637317	      1.53950200	      0.00000000	     48.54689666	      2.04367321	     -5.49503036	     53.59684124	      0.93544135	      0.82949772	    -14.01727457	      0.00000000
     22.56000000	     -8.05599352	      3.85685456	      0.23601768	      1.98421844	      0.98958347	      1.01600734	    -22.42870691	     -3.79507395	    -22.31224318	     23.42532401	      0.40884903	    -22.94236266	      0.21647511	      0.00000000	     48.15555978	      2.46772268	     -5.80870509	     48.49999782	      0.84648465	      1.18800378	    -12.71026251	      0.00000000
     22.56666667	     -8.31495265	      3.77579491	      0.90144702	      1.98493868	      0.99052995	      1.01438040	    -22.12555891	     -3.87036540	    -22.40033771	     26.13915802	      0.45621437	    -22.73698483	     -1.21636742	      0.00000000	     47.43225066	      2.83378405	     -6.34341597	     43.41561451	      0.75774542	      1.71640867	    -11.02652884	      0.00000000
     22.57333333	     -8.35962261	      3.68585848	      1.49951442	      1.98547508	      0.99126832	      1.01277037	    -21.84327520	     -3.88853464	    -21.99590760	     29.16256532	      0.50898278	    -22.25789932	     -2.75946787	      0.00000000	     46.40316071	      3.13224872	     -7.16525123	     38.49707368	      0.67190069	      2.63545582	     -8.57458488	      0.00000000
     22.58000000	     -8.23556317	      3.58087864	      2.05135165	      1.98578028	      0.99166522	      1.01114242	    -21.51739345	     -3.84520711	    -21.25679468	     32.51125408	      0.56742843	    -21.70641723	     -4.39824168	      0.00000000	     45.14272945	      3.46393103	     -8.02447920	     33.78017361	      0.58957525	      3.50916443	     -5.96946043	      0.00000000
     22.58666667	     -8.03572278	      3.50731885	      2.61117022	      1.98589749	      0.99159441	      1.00945496	    -21.07547968	     -3.79560895	    -20.42267827	     36.16876961	      0.63126412	    -21.15070371	     -5.98977197	      0.00000000	     43.74421660	      3.97844143	     -8.59999137	     29.27251781	      0.51090182	      4.08980655	     -3.67951135	      0.00000000
     22.59333333	     -7.66193165	      3.49168110	      3.09739363	      1.98582740	      0.99124177	      1.00795124	    -20.62870757	     -3.82236252	    -19.62318171	     40.09750612	      0.69983350	    -20.67929925	     -7.31538488	      0.00000000	     42.16782486	      4.53609676	     -9.11844511	     25.16966556	      0.43929354	      4.61289981	     -1.31992104	      0.00000000
     22.60000000	     -7.22077023	      3.55376328	      3.59971310	      1.98562892	      0.99043095	      1.00655027	    -20.11918918	     -3.92841124	    -19.01342632	     44.22532800	      0.77187759	    -20.32190599	     -8.47415588	      0.00000000	     40.54256120	      5.21709381	     -9.38979348	     21.52305625	      0.37564820	      4.89208975	      0.80717577	      0.00000000
     22.60666667	     -6.72205066	      3.58557365	      4.12863788	      1.98515087	      0.98923931	      1.00529163	    -19.51334768	     -3.95943449	    -18.47121080	     48.49983399	      0.84648179	    -20.12324699	     -9.58415546	      0.00000000	     38.96376266	      5.90714108	     -9.23457887	     18.52247690	      0.32327821	      5.14950936	      2.56230700	      0.00000000
     22.61333333	     -6.04000126	      4.06816629	      4.58459082	      1.98486227	      0.98783744	      1.00425835	    -19.10009843	     -4.64075006	    -18.47192193	     52.91628783	      0.92356345	    -20.05358994	    -10.28501914	      0.00000000	     36.86872973	      7.03274640	     -8.70447164	     15.33657185	      0.26767367	      3.81300155	      2.65050034	      0.00000000
     22.62000000	     -5.46513751	      4.42592847	      5.05334178	      1.98429037	      0.98588404	      1.00346578	    -18.40852391	     -5.06199787	    -18.25989130	     57.36943355	      1.00128551	    -20.25598866	    -11.46323556	      0.00000000	     35.34170905	      7.79361101	     -8.79933944	     13.58828251	      0.23716027	      3.43572896	      3.82276500	      0.00000000
     22.62666667	     -4.75799600	      5.02955748	      5.47851308	      1.98377062	      0.98372054	      1.00284514	    -17.84746806	     -5.83062271	    -18.31763665	     61.83546045	      1.07923238	    -20.57428206	    -12.49851652	      0.00000000	     33.69127504	      8.66938737	     -9.13517837	     12.36891664	      0.21587832	      2.39281473	      4.35030960	      0.00000000
     22.63333333	     -4.06400899	      5.71093187	      5.92557619	      1.98312891	      0.98117779	      1.00232921	    -17.20657404	     -6.67594199	    -18.44951848	     66.29947707	      1.15714417	    -20.92020924	    -13.69264920	      0.00000000	     32.20760632	      9.52620658	     -9.61618099	     11.92729493	      0.20817057	      1.28408281	      4.33357212	      0.00000000
     22.64000000	     -3.40281293	      6.51061034	      6.32860782	      1.98237705	      0.97827692	      1.00201041	    -16.45661378	     -7.65886679	    -18.56545340	     70.75583375	      1.23492226	    -21.33245813	    -14.75684494	      0.00000000	     30.85503020	     10.39497073	    -10.18005853	     12.11286695	      0.21140941	     -0.18816188	      3.68958534	      0.00000000
     22.64666667	     -2.75275853	      7.34094998	      6.80978241	      1.98151418	      0.97502631	      1.00170853	    -15.67300183	     -8.66992079	    -18.78798436	     75.11476342	      1.31099994	    -21.75444962	    -16.13473759	      0.00000000	     29.74412226	     11.17483689	    -11.00966715	     13.20405117	      0.23045417	     -1.46705845	      2.78168029	      0.00000000
     22.65333333	     -2.30315132	      8.20514386	      7.21497016	      1.98046383	      0.97123596	      1.00161921	    -14.55402362	     -9.78702439	    -18.89293784	     79.47911617	      1.38717226	    -22.11665938	    -17.47460773	      0.00000000	     28.98065486	     11.85710698	    -11.95694149	     14.91624657	      0.26033761	     -2.73317141	      1.42466487	      0.00000000
     22.66000000	     -2.00411672	      9.01186350	      7.65252484	      1.97921330	      0.96705148	      1.00161334	    -13.17038104	    -10.87491026	    -18.94722093	     83.77714771	      1.46218707	    -22.34631269	    -18.80393118	      0.00000000	     28.52193552	     12.41775377	    -12.78235365	     17.25806476	      0.30121005	     -3.74479565	     -0.33452780	      0.00000000
